<mxfile host="app.diagrams.net" agent="Mozilla/5.0 (Windows NT 10.0; Win64; x64) AppleWebKit/537.36 (KHTML, like Gecko) Chrome/133.0.0.0 Safari/537.36" version="26.1.0">
  <diagram name="Page-1" id="dIcrA_qB1EK9TaSI5K_2">
    <mxGraphModel dx="4300" dy="2450" grid="0" gridSize="10" guides="1" tooltips="1" connect="1" arrows="1" fold="1" page="0" pageScale="1" pageWidth="850" pageHeight="1100" math="0" shadow="0">
      <root>
        <mxCell id="0" />
        <mxCell id="1" parent="0" />
        <mxCell id="UraL1NpnlC7Kskf86XwC-1" value="" style="rounded=0;whiteSpace=wrap;html=1;" vertex="1" parent="1">
          <mxGeometry x="-264.17" y="-113" width="221" height="130" as="geometry" />
        </mxCell>
        <mxCell id="UraL1NpnlC7Kskf86XwC-48" style="edgeStyle=none;curved=1;rounded=0;orthogonalLoop=1;jettySize=auto;html=1;exitX=0.5;exitY=1;exitDx=0;exitDy=0;entryX=0.5;entryY=0;entryDx=0;entryDy=0;fontSize=12;startSize=8;endSize=8;strokeWidth=3;" edge="1" parent="1" source="UraL1NpnlC7Kskf86XwC-2" target="UraL1NpnlC7Kskf86XwC-47">
          <mxGeometry relative="1" as="geometry" />
        </mxCell>
        <mxCell id="UraL1NpnlC7Kskf86XwC-2" value="Home Page" style="ellipse;whiteSpace=wrap;html=1;" vertex="1" parent="1">
          <mxGeometry x="-212.67" y="-58" width="123" height="46" as="geometry" />
        </mxCell>
        <mxCell id="UraL1NpnlC7Kskf86XwC-3" style="edgeStyle=none;curved=1;rounded=0;orthogonalLoop=1;jettySize=auto;html=1;exitX=1;exitY=1;exitDx=0;exitDy=0;fontSize=12;startSize=8;endSize=8;" edge="1" parent="1" source="UraL1NpnlC7Kskf86XwC-1" target="UraL1NpnlC7Kskf86XwC-1">
          <mxGeometry relative="1" as="geometry" />
        </mxCell>
        <mxCell id="UraL1NpnlC7Kskf86XwC-4" value="Professional and Educational Hub" style="text;html=1;align=center;verticalAlign=middle;whiteSpace=wrap;rounded=0;" vertex="1" parent="1">
          <mxGeometry x="-153.17" y="-104" width="100" height="30" as="geometry" />
        </mxCell>
        <mxCell id="UraL1NpnlC7Kskf86XwC-6" value="" style="rounded=0;whiteSpace=wrap;html=1;" vertex="1" parent="1">
          <mxGeometry x="-260" y="360" width="215" height="315" as="geometry" />
        </mxCell>
        <mxCell id="UraL1NpnlC7Kskf86XwC-8" value="University Teacher Information" style="rounded=1;whiteSpace=wrap;html=1;" vertex="1" parent="1">
          <mxGeometry x="-244" y="375" width="182" height="40" as="geometry" />
        </mxCell>
        <mxCell id="UraL1NpnlC7Kskf86XwC-50" value="" style="edgeStyle=none;curved=1;rounded=0;orthogonalLoop=1;jettySize=auto;html=1;fontSize=12;startSize=8;endSize=8;strokeWidth=4;" edge="1" parent="1" source="UraL1NpnlC7Kskf86XwC-9" target="UraL1NpnlC7Kskf86XwC-49">
          <mxGeometry relative="1" as="geometry" />
        </mxCell>
        <mxCell id="UraL1NpnlC7Kskf86XwC-9" value="Skill Development Section" style="rounded=1;whiteSpace=wrap;html=1;" vertex="1" parent="1">
          <mxGeometry x="-244" y="424" width="182" height="40" as="geometry" />
        </mxCell>
        <mxCell id="UraL1NpnlC7Kskf86XwC-58" value="" style="edgeStyle=none;curved=1;rounded=0;orthogonalLoop=1;jettySize=auto;html=1;fontSize=12;startSize=8;endSize=8;strokeWidth=3;exitX=1;exitY=0.5;exitDx=0;exitDy=0;" edge="1" parent="1" source="UraL1NpnlC7Kskf86XwC-10" target="UraL1NpnlC7Kskf86XwC-57">
          <mxGeometry relative="1" as="geometry">
            <Array as="points">
              <mxPoint x="35" y="482" />
              <mxPoint x="23" y="559" />
            </Array>
          </mxGeometry>
        </mxCell>
        <mxCell id="UraL1NpnlC7Kskf86XwC-10" value="Course-Based Resource Library" style="rounded=1;whiteSpace=wrap;html=1;" vertex="1" parent="1">
          <mxGeometry x="-244" y="473" width="182" height="40" as="geometry" />
        </mxCell>
        <mxCell id="UraL1NpnlC7Kskf86XwC-64" value="" style="edgeStyle=none;curved=1;rounded=0;orthogonalLoop=1;jettySize=auto;html=1;fontSize=12;startSize=8;endSize=8;strokeWidth=3;exitX=1;exitY=0.5;exitDx=0;exitDy=0;" edge="1" parent="1" source="UraL1NpnlC7Kskf86XwC-11" target="UraL1NpnlC7Kskf86XwC-63">
          <mxGeometry relative="1" as="geometry">
            <Array as="points">
              <mxPoint x="6" y="542" />
              <mxPoint x="30" y="775" />
            </Array>
          </mxGeometry>
        </mxCell>
        <mxCell id="UraL1NpnlC7Kskf86XwC-11" value="CV Building and Review" style="rounded=1;whiteSpace=wrap;html=1;" vertex="1" parent="1">
          <mxGeometry x="-244" y="522" width="182" height="40" as="geometry" />
        </mxCell>
        <mxCell id="UraL1NpnlC7Kskf86XwC-13" value="Notice And Announcement Panel" style="rounded=1;whiteSpace=wrap;html=1;" vertex="1" parent="1">
          <mxGeometry x="-244" y="570" width="182" height="40" as="geometry" />
        </mxCell>
        <mxCell id="UraL1NpnlC7Kskf86XwC-40" style="edgeStyle=none;curved=1;rounded=0;orthogonalLoop=1;jettySize=auto;html=1;exitX=0.5;exitY=1;exitDx=0;exitDy=0;entryX=0.5;entryY=0;entryDx=0;entryDy=0;fontSize=12;startSize=8;endSize=8;strokeWidth=3;" edge="1" parent="1" source="UraL1NpnlC7Kskf86XwC-32" target="UraL1NpnlC7Kskf86XwC-6">
          <mxGeometry relative="1" as="geometry" />
        </mxCell>
        <mxCell id="UraL1NpnlC7Kskf86XwC-73" value="" style="edgeStyle=none;curved=1;rounded=0;orthogonalLoop=1;jettySize=auto;html=1;fontSize=12;startSize=8;endSize=8;strokeWidth=4;" edge="1" parent="1" source="UraL1NpnlC7Kskf86XwC-34" target="UraL1NpnlC7Kskf86XwC-72">
          <mxGeometry relative="1" as="geometry" />
        </mxCell>
        <mxCell id="UraL1NpnlC7Kskf86XwC-49" value="" style="whiteSpace=wrap;html=1;rounded=1;" vertex="1" parent="1">
          <mxGeometry x="-522" y="386.75" width="190" height="114.5" as="geometry" />
        </mxCell>
        <mxCell id="UraL1NpnlC7Kskf86XwC-51" value="Professional Guidance" style="rounded=1;whiteSpace=wrap;html=1;" vertex="1" parent="1">
          <mxGeometry x="-505" y="401" width="156" height="32" as="geometry" />
        </mxCell>
        <mxCell id="UraL1NpnlC7Kskf86XwC-52" value="Free Courses" style="rounded=1;whiteSpace=wrap;html=1;" vertex="1" parent="1">
          <mxGeometry x="-505" y="450" width="156" height="32" as="geometry" />
        </mxCell>
        <mxCell id="UraL1NpnlC7Kskf86XwC-68" value="Personal Grow Analysis" style="rounded=1;whiteSpace=wrap;html=1;" vertex="1" parent="1">
          <mxGeometry x="-244.67" y="619" width="182" height="40" as="geometry" />
        </mxCell>
        <mxCell id="UraL1NpnlC7Kskf86XwC-70" value="" style="group" vertex="1" connectable="0" parent="1">
          <mxGeometry x="65" y="334.0034416826004" width="267" height="210.5965583173996" as="geometry" />
        </mxCell>
        <mxCell id="UraL1NpnlC7Kskf86XwC-17" value="" style="rounded=1;whiteSpace=wrap;html=1;container=0;" vertex="1" parent="UraL1NpnlC7Kskf86XwC-70">
          <mxGeometry width="267" height="210.5965583173996" as="geometry" />
        </mxCell>
        <mxCell id="UraL1NpnlC7Kskf86XwC-69" value="" style="group" vertex="1" connectable="0" parent="UraL1NpnlC7Kskf86XwC-70">
          <mxGeometry x="13.511329305135945" y="1.9865583173996129" width="248.85045317220548" height="202.96181644359464" as="geometry" />
        </mxCell>
        <mxCell id="UraL1NpnlC7Kskf86XwC-19" value="" style="ellipse;whiteSpace=wrap;html=1;container=0;" vertex="1" parent="UraL1NpnlC7Kskf86XwC-69">
          <mxGeometry y="26.254359464627157" width="248.85045317220548" height="176.70745697896749" as="geometry" />
        </mxCell>
        <mxCell id="UraL1NpnlC7Kskf86XwC-20" value="University Teacher Information" style="text;html=1;align=center;verticalAlign=middle;whiteSpace=wrap;rounded=0;container=0;" vertex="1" parent="UraL1NpnlC7Kskf86XwC-69">
          <mxGeometry x="36.19867069486405" width="176.45" height="24.21" as="geometry" />
        </mxCell>
        <mxCell id="UraL1NpnlC7Kskf86XwC-21" value="Contact Information" style="ellipse;whiteSpace=wrap;html=1;container=0;" vertex="1" parent="UraL1NpnlC7Kskf86XwC-69">
          <mxGeometry x="25.207703927492446" y="63.37099426386237" width="103.25075528700907" height="53.254302103250474" as="geometry" />
        </mxCell>
        <mxCell id="UraL1NpnlC7Kskf86XwC-22" value="About Teachers" style="ellipse;whiteSpace=wrap;html=1;container=0;" vertex="1" parent="UraL1NpnlC7Kskf86XwC-69">
          <mxGeometry x="125.03851963746226" y="87.98093690248567" width="103.25075528700907" height="53.254302103250474" as="geometry" />
        </mxCell>
        <mxCell id="UraL1NpnlC7Kskf86XwC-23" value="Class Schedules" style="ellipse;whiteSpace=wrap;html=1;container=0;" vertex="1" parent="UraL1NpnlC7Kskf86XwC-69">
          <mxGeometry x="28.434290030211486" y="124.69413001912045" width="103.25075528700907" height="53.254302103250474" as="geometry" />
        </mxCell>
        <mxCell id="UraL1NpnlC7Kskf86XwC-80" value="" style="edgeStyle=none;curved=1;rounded=0;orthogonalLoop=1;jettySize=auto;html=1;fontSize=12;startSize=8;endSize=8;strokeColor=default;strokeWidth=4;" edge="1" parent="1" source="UraL1NpnlC7Kskf86XwC-78" target="UraL1NpnlC7Kskf86XwC-79">
          <mxGeometry relative="1" as="geometry" />
        </mxCell>
        <mxCell id="UraL1NpnlC7Kskf86XwC-92" value="" style="group" vertex="1" connectable="0" parent="1">
          <mxGeometry x="67" y="131" width="376" height="181" as="geometry" />
        </mxCell>
        <mxCell id="UraL1NpnlC7Kskf86XwC-72" value="" style="whiteSpace=wrap;html=1;" vertex="1" parent="UraL1NpnlC7Kskf86XwC-92">
          <mxGeometry y="5" width="376" height="176" as="geometry" />
        </mxCell>
        <mxCell id="UraL1NpnlC7Kskf86XwC-74" value="" style="ellipse;whiteSpace=wrap;html=1;" vertex="1" parent="UraL1NpnlC7Kskf86XwC-92">
          <mxGeometry x="24" y="27" width="341" height="144" as="geometry" />
        </mxCell>
        <mxCell id="UraL1NpnlC7Kskf86XwC-75" value="UserName Checking" style="ellipse;whiteSpace=wrap;html=1;" vertex="1" parent="UraL1NpnlC7Kskf86XwC-92">
          <mxGeometry x="68" y="46" width="144" height="49" as="geometry" />
        </mxCell>
        <mxCell id="UraL1NpnlC7Kskf86XwC-76" value="Password Checking" style="ellipse;whiteSpace=wrap;html=1;" vertex="1" parent="UraL1NpnlC7Kskf86XwC-92">
          <mxGeometry x="69.93" y="100" width="144" height="49" as="geometry" />
        </mxCell>
        <mxCell id="UraL1NpnlC7Kskf86XwC-78" value="Forget Password" style="ellipse;whiteSpace=wrap;html=1;" vertex="1" parent="UraL1NpnlC7Kskf86XwC-92">
          <mxGeometry x="202.5" y="74.5" width="144" height="49" as="geometry" />
        </mxCell>
        <mxCell id="UraL1NpnlC7Kskf86XwC-91" value="Authentication" style="text;html=1;align=center;verticalAlign=middle;whiteSpace=wrap;rounded=0;" vertex="1" parent="UraL1NpnlC7Kskf86XwC-92">
          <mxGeometry x="133" width="99" height="30" as="geometry" />
        </mxCell>
        <mxCell id="UraL1NpnlC7Kskf86XwC-93" value="" style="group" vertex="1" connectable="0" parent="1">
          <mxGeometry x="491" y="135" width="305" height="173" as="geometry" />
        </mxCell>
        <mxCell id="UraL1NpnlC7Kskf86XwC-79" value="" style="whiteSpace=wrap;html=1;" vertex="1" parent="UraL1NpnlC7Kskf86XwC-93">
          <mxGeometry y="4" width="305" height="169" as="geometry" />
        </mxCell>
        <mxCell id="UraL1NpnlC7Kskf86XwC-81" value="" style="ellipse;whiteSpace=wrap;html=1;" vertex="1" parent="UraL1NpnlC7Kskf86XwC-93">
          <mxGeometry x="8" y="30" width="266" height="129" as="geometry" />
        </mxCell>
        <mxCell id="UraL1NpnlC7Kskf86XwC-82" value="Email check" style="ellipse;whiteSpace=wrap;html=1;" vertex="1" parent="UraL1NpnlC7Kskf86XwC-93">
          <mxGeometry x="34" y="49" width="106" height="26" as="geometry" />
        </mxCell>
        <mxCell id="UraL1NpnlC7Kskf86XwC-83" value="Verification Code&amp;nbsp;" style="ellipse;whiteSpace=wrap;html=1;" vertex="1" parent="UraL1NpnlC7Kskf86XwC-93">
          <mxGeometry x="38" y="92" width="106" height="34" as="geometry" />
        </mxCell>
        <mxCell id="UraL1NpnlC7Kskf86XwC-84" value="Set new Password" style="ellipse;whiteSpace=wrap;html=1;" vertex="1" parent="UraL1NpnlC7Kskf86XwC-93">
          <mxGeometry x="132" y="57" width="106" height="40" as="geometry" />
        </mxCell>
        <mxCell id="UraL1NpnlC7Kskf86XwC-85" value="Validation" style="ellipse;whiteSpace=wrap;html=1;" vertex="1" parent="UraL1NpnlC7Kskf86XwC-93">
          <mxGeometry x="140" y="111" width="98" height="31" as="geometry" />
        </mxCell>
        <mxCell id="UraL1NpnlC7Kskf86XwC-86" value="" style="endArrow=none;html=1;rounded=0;fontSize=12;startSize=8;endSize=8;curved=1;exitX=0.5;exitY=0;exitDx=0;exitDy=0;entryX=0.5;entryY=1;entryDx=0;entryDy=0;" edge="1" parent="UraL1NpnlC7Kskf86XwC-93" source="UraL1NpnlC7Kskf86XwC-83" target="UraL1NpnlC7Kskf86XwC-82">
          <mxGeometry width="50" height="50" relative="1" as="geometry">
            <mxPoint x="93" y="81" as="sourcePoint" />
            <mxPoint x="143" y="31" as="targetPoint" />
          </mxGeometry>
        </mxCell>
        <mxCell id="UraL1NpnlC7Kskf86XwC-88" value="" style="endArrow=classic;html=1;rounded=0;fontSize=12;startSize=8;endSize=8;curved=1;exitX=1;exitY=0.5;exitDx=0;exitDy=0;entryX=0.327;entryY=0.944;entryDx=0;entryDy=0;entryPerimeter=0;" edge="1" parent="UraL1NpnlC7Kskf86XwC-93" source="UraL1NpnlC7Kskf86XwC-83" target="UraL1NpnlC7Kskf86XwC-84">
          <mxGeometry width="50" height="50" relative="1" as="geometry">
            <mxPoint x="215.00000000000205" y="176" as="sourcePoint" />
            <mxPoint x="163" y="92" as="targetPoint" />
          </mxGeometry>
        </mxCell>
        <mxCell id="UraL1NpnlC7Kskf86XwC-89" value="" style="endArrow=none;html=1;rounded=0;fontSize=12;startSize=8;endSize=8;curved=1;entryX=0.548;entryY=0.986;entryDx=0;entryDy=0;entryPerimeter=0;exitX=0.526;exitY=0.012;exitDx=0;exitDy=0;exitPerimeter=0;" edge="1" parent="UraL1NpnlC7Kskf86XwC-93" source="UraL1NpnlC7Kskf86XwC-85" target="UraL1NpnlC7Kskf86XwC-84">
          <mxGeometry width="50" height="50" relative="1" as="geometry">
            <mxPoint x="93" y="90" as="sourcePoint" />
            <mxPoint x="143" y="40" as="targetPoint" />
          </mxGeometry>
        </mxCell>
        <mxCell id="UraL1NpnlC7Kskf86XwC-90" value="Forget Password" style="text;html=1;align=center;verticalAlign=middle;whiteSpace=wrap;rounded=0;" vertex="1" parent="UraL1NpnlC7Kskf86XwC-93">
          <mxGeometry x="106" width="99" height="30" as="geometry" />
        </mxCell>
        <mxCell id="UraL1NpnlC7Kskf86XwC-94" value="" style="group" vertex="1" connectable="0" parent="1">
          <mxGeometry x="-320" y="129" width="342" height="185" as="geometry" />
        </mxCell>
        <mxCell id="UraL1NpnlC7Kskf86XwC-27" value="" style="rounded=0;whiteSpace=wrap;html=1;" vertex="1" parent="UraL1NpnlC7Kskf86XwC-94">
          <mxGeometry width="342" height="185" as="geometry" />
        </mxCell>
        <mxCell id="UraL1NpnlC7Kskf86XwC-31" value="" style="ellipse;whiteSpace=wrap;html=1;" vertex="1" parent="UraL1NpnlC7Kskf86XwC-94">
          <mxGeometry x="20.829999999999984" y="30" width="296" height="144" as="geometry" />
        </mxCell>
        <mxCell id="UraL1NpnlC7Kskf86XwC-32" value="Login" style="ellipse;whiteSpace=wrap;html=1;" vertex="1" parent="UraL1NpnlC7Kskf86XwC-94">
          <mxGeometry x="131.99999999999997" y="115" width="71" height="41" as="geometry" />
        </mxCell>
        <mxCell id="UraL1NpnlC7Kskf86XwC-38" style="edgeStyle=none;curved=1;rounded=0;orthogonalLoop=1;jettySize=auto;html=1;exitX=1;exitY=0.5;exitDx=0;exitDy=0;entryX=0;entryY=0;entryDx=0;entryDy=0;fontSize=12;startSize=8;endSize=8;" edge="1" parent="UraL1NpnlC7Kskf86XwC-94" source="UraL1NpnlC7Kskf86XwC-33" target="UraL1NpnlC7Kskf86XwC-34">
          <mxGeometry relative="1" as="geometry" />
        </mxCell>
        <mxCell id="UraL1NpnlC7Kskf86XwC-33" value="Registration" style="ellipse;whiteSpace=wrap;html=1;" vertex="1" parent="UraL1NpnlC7Kskf86XwC-94">
          <mxGeometry x="49" y="64" width="91" height="51" as="geometry" />
        </mxCell>
        <mxCell id="UraL1NpnlC7Kskf86XwC-39" style="edgeStyle=none;curved=1;rounded=0;orthogonalLoop=1;jettySize=auto;html=1;exitX=0.5;exitY=1;exitDx=0;exitDy=0;fontSize=12;startSize=8;endSize=8;" edge="1" parent="UraL1NpnlC7Kskf86XwC-94" source="UraL1NpnlC7Kskf86XwC-34" target="UraL1NpnlC7Kskf86XwC-32">
          <mxGeometry relative="1" as="geometry" />
        </mxCell>
        <mxCell id="UraL1NpnlC7Kskf86XwC-34" value="Authentication" style="ellipse;whiteSpace=wrap;html=1;" vertex="1" parent="UraL1NpnlC7Kskf86XwC-94">
          <mxGeometry x="193" y="54" width="104.17" height="46" as="geometry" />
        </mxCell>
        <mxCell id="UraL1NpnlC7Kskf86XwC-47" value="Login and Registration&amp;nbsp;&amp;nbsp;" style="text;html=1;align=center;verticalAlign=middle;whiteSpace=wrap;rounded=0;" vertex="1" parent="UraL1NpnlC7Kskf86XwC-94">
          <mxGeometry x="103.83000000000001" width="130" height="30" as="geometry" />
        </mxCell>
        <mxCell id="UraL1NpnlC7Kskf86XwC-95" value="" style="group" vertex="1" connectable="0" parent="1">
          <mxGeometry x="52" y="586" width="288.64" height="175.25" as="geometry" />
        </mxCell>
        <mxCell id="UraL1NpnlC7Kskf86XwC-57" value="" style="whiteSpace=wrap;html=1;rounded=1;" vertex="1" parent="UraL1NpnlC7Kskf86XwC-95">
          <mxGeometry width="288.64" height="175.25" as="geometry" />
        </mxCell>
        <mxCell id="UraL1NpnlC7Kskf86XwC-98" value="" style="group" vertex="1" connectable="0" parent="UraL1NpnlC7Kskf86XwC-95">
          <mxGeometry x="18.64" y="14.25" width="255" height="147" as="geometry" />
        </mxCell>
        <mxCell id="UraL1NpnlC7Kskf86XwC-59" value="Books/Handnotes/Websites" style="rounded=1;whiteSpace=wrap;html=1;" vertex="1" parent="UraL1NpnlC7Kskf86XwC-98">
          <mxGeometry width="250" height="40" as="geometry" />
        </mxCell>
        <mxCell id="UraL1NpnlC7Kskf86XwC-60" value="Youtube Video Tutorials" style="rounded=1;whiteSpace=wrap;html=1;" vertex="1" parent="UraL1NpnlC7Kskf86XwC-98">
          <mxGeometry x="3.1599999999999966" y="53" width="250" height="40" as="geometry" />
        </mxCell>
        <mxCell id="UraL1NpnlC7Kskf86XwC-61" value="COurse Materials" style="rounded=1;whiteSpace=wrap;html=1;" vertex="1" parent="UraL1NpnlC7Kskf86XwC-98">
          <mxGeometry x="5" y="107" width="250" height="40" as="geometry" />
        </mxCell>
        <mxCell id="UraL1NpnlC7Kskf86XwC-96" value="" style="group" vertex="1" connectable="0" parent="1">
          <mxGeometry x="90" y="807" width="232" height="137" as="geometry" />
        </mxCell>
        <mxCell id="UraL1NpnlC7Kskf86XwC-63" value="" style="whiteSpace=wrap;html=1;rounded=1;" vertex="1" parent="UraL1NpnlC7Kskf86XwC-96">
          <mxGeometry width="232" height="137" as="geometry" />
        </mxCell>
        <mxCell id="UraL1NpnlC7Kskf86XwC-65" value="All About CV" style="rounded=1;whiteSpace=wrap;html=1;" vertex="1" parent="UraL1NpnlC7Kskf86XwC-96">
          <mxGeometry x="14.86" y="10" width="198.14" height="33" as="geometry" />
        </mxCell>
        <mxCell id="UraL1NpnlC7Kskf86XwC-66" value="CV Creation" style="rounded=1;whiteSpace=wrap;html=1;" vertex="1" parent="UraL1NpnlC7Kskf86XwC-96">
          <mxGeometry x="16.930000000000007" y="54" width="198.14" height="33" as="geometry" />
        </mxCell>
        <mxCell id="UraL1NpnlC7Kskf86XwC-67" value="CV Review System" style="rounded=1;whiteSpace=wrap;html=1;" vertex="1" parent="UraL1NpnlC7Kskf86XwC-96">
          <mxGeometry x="17.430000000000007" y="97" width="198.14" height="33" as="geometry" />
        </mxCell>
        <mxCell id="UraL1NpnlC7Kskf86XwC-99" value="" style="curved=1;endArrow=classic;html=1;rounded=0;fontSize=12;startSize=8;endSize=8;exitX=1;exitY=0.5;exitDx=0;exitDy=0;entryX=0;entryY=0.5;entryDx=0;entryDy=0;strokeWidth=3;" edge="1" parent="1" source="UraL1NpnlC7Kskf86XwC-8" target="UraL1NpnlC7Kskf86XwC-17">
          <mxGeometry width="50" height="50" relative="1" as="geometry">
            <mxPoint x="56" y="431" as="sourcePoint" />
            <mxPoint x="106" y="381" as="targetPoint" />
            <Array as="points" />
          </mxGeometry>
        </mxCell>
        <mxCell id="UraL1NpnlC7Kskf86XwC-105" value="" style="edgeStyle=none;curved=1;rounded=0;orthogonalLoop=1;jettySize=auto;html=1;fontSize=12;startSize=8;endSize=8;entryX=0;entryY=0.5;entryDx=0;entryDy=0;exitX=1;exitY=0.5;exitDx=0;exitDy=0;" edge="1" parent="1" source="UraL1NpnlC7Kskf86XwC-67" target="UraL1NpnlC7Kskf86XwC-106">
          <mxGeometry relative="1" as="geometry">
            <mxPoint x="464.6399999999994" y="920.5" as="targetPoint" />
          </mxGeometry>
        </mxCell>
        <mxCell id="UraL1NpnlC7Kskf86XwC-106" value="" style="rounded=0;whiteSpace=wrap;html=1;" vertex="1" parent="1">
          <mxGeometry x="362" y="878" width="401" height="152" as="geometry" />
        </mxCell>
        <mxCell id="UraL1NpnlC7Kskf86XwC-108" value="" style="ellipse;whiteSpace=wrap;html=1;" vertex="1" parent="1">
          <mxGeometry x="371" y="904" width="381" height="118" as="geometry" />
        </mxCell>
        <mxCell id="UraL1NpnlC7Kskf86XwC-112" style="edgeStyle=none;curved=1;rounded=0;orthogonalLoop=1;jettySize=auto;html=1;exitX=1;exitY=0.5;exitDx=0;exitDy=0;entryX=0;entryY=0;entryDx=0;entryDy=0;fontSize=12;startSize=8;endSize=8;" edge="1" parent="1" source="UraL1NpnlC7Kskf86XwC-109" target="UraL1NpnlC7Kskf86XwC-111">
          <mxGeometry relative="1" as="geometry" />
        </mxCell>
        <mxCell id="UraL1NpnlC7Kskf86XwC-113" style="edgeStyle=none;curved=1;rounded=0;orthogonalLoop=1;jettySize=auto;html=1;exitX=0.721;exitY=0.981;exitDx=0;exitDy=0;entryX=0.5;entryY=0;entryDx=0;entryDy=0;fontSize=12;startSize=8;endSize=8;exitPerimeter=0;" edge="1" parent="1" source="UraL1NpnlC7Kskf86XwC-109" target="UraL1NpnlC7Kskf86XwC-110">
          <mxGeometry relative="1" as="geometry" />
        </mxCell>
        <mxCell id="UraL1NpnlC7Kskf86XwC-109" value="AI for PDF reader" style="ellipse;whiteSpace=wrap;html=1;" vertex="1" parent="1">
          <mxGeometry x="403.5" y="922" width="171" height="30" as="geometry" />
        </mxCell>
        <mxCell id="UraL1NpnlC7Kskf86XwC-110" value="Compare formated CV" style="ellipse;whiteSpace=wrap;html=1;" vertex="1" parent="1">
          <mxGeometry x="443" y="977" width="171" height="30" as="geometry" />
        </mxCell>
        <mxCell id="UraL1NpnlC7Kskf86XwC-111" value="Matching Job search" style="ellipse;whiteSpace=wrap;html=1;" vertex="1" parent="1">
          <mxGeometry x="574.5" y="941" width="171" height="30" as="geometry" />
        </mxCell>
      </root>
    </mxGraphModel>
  </diagram>
</mxfile>
